<?xml version="1.0" encoding="UTF-8"?><svg id="Layer_1" xmlns="http://www.w3.org/2000/svg" viewBox="0 0 868.9 173.3"><defs><style>.cls-1{fill:#fff;}</style></defs><path class="cls-1" d="m354.8,107.8c10.5,6.1,22.4,9.5,34.5,10.1,7.4,0,11.9-2,11.9-6.7,0-6.7-9.8-6.1-23-9.4-16.5-4.1-26.3-11-26.3-25.3s16.5-28.8,38.2-28.8c11.5-.1,22.9,2.2,33.5,6.9v22.8c-10.1-5.6-21.2-8.7-32.7-9.3-7.1,0-11.4,2.1-11.4,6.1,0,6.1,9.4,6.1,22.4,9,16.7,4.1,26.9,10.5,26.9,25.5s-16.9,29.5-39.3,29.5-23.7-2.4-34.5-7.3v-23h-.1Zm148.1,25.8c-6.1,3.2-12.8,4.9-19.7,4.8-8.5.4-16.7-2.8-22.8-8.7-4.6-4.9-7.7-12.2-7.7-26.1v-32h-14.2v-22.2h14.2V15.5h27v33.9h23.2v22.4h-23.2v29.2c0,8.5,2,14.8,10.2,14.8,4.5-.3,9-1.5,13-3.6v21.4h0ZM705.6,15.5h27v70.6h.4l30.6-37h30.6l-33.5,39,36,48.2h-31.9l-31.9-44.4h-.4v44.3h-27V15.5Zm121.5,94.5c0-13.1,3-20.1,12.3-23.2v-.4c-9.3-3-12.3-10.1-12.3-23.2v-31.2c0-9.4-3.3-12.7-11.2-12.7s-4.5.3-6.7.7V1.1c4.1-.7,8.2-1.1,12.3-1.1,21,0,30.6,11.9,30.6,28.8v35.5c0,9,2.5,12.6,11.8,12.6h5.2v19.4h-5.2c-9.3,0-11.8,3.6-11.8,12.6v35.6c0,16.9-9.8,28.8-30.6,28.8s-8.2-.4-12.3-1.1v-18.9c2.2.5,4.5.8,6.7.8,7.8,0,11.2-3.3,11.2-12.7v-31.5h0Zm-227.2,6.2c-3.7,0-5.3-2.8-5.3-6.9v-29.5c.8-9.1-2.9-18.1-9.8-24.1-8.5-6-18.8-8.9-29.1-8.3-10.6-.1-21,2.2-30.6,6.7v23.2c7.8-4.4,16.7-6.7,25.5-6.9,4.8-.4,9.5.9,13.5,3.7,2.2,2.5,3.6,5.8,3.3,9.3v3.4c-4.9-1.1-10.1-1.6-15.1-1.6-8.6-.4-17.1,1.7-24.5,6.1-7,4.8-11,12.7-10.7,21-.3,8.1,3.7,15.7,10.3,20.4,6,3.8,13.1,5.8,20.2,5.7,8.7.1,17.2-2.4,24.5-7.3h.3c5.2,4.6,11.9,7.1,18.9,6.7,4.5.1,8.9-.8,13-2.6v-20.1c-1.5.7-2.9,1.1-4.5,1.1Zm-32.3-1.1c-3.7,2.2-7.9,3.4-12.3,3.6-6.3,0-11.2-3-11.2-8.7s7-8.9,13.9-8.9,6.5.4,9.7,1.2v12.8Zm120.9,16.5c-8.9,4.6-18.7,6.9-28.7,6.7-28,0-48.9-19.2-48.9-45.4s22.8-45.6,50.1-45.6,17.9,2.1,25.9,6.1v25c-7.3-4.9-15.7-7.8-24.5-8.1-8.5-.4-16.4,4-20.6,11.2-4.2,7.3-4.2,16.3.1,23.4,4.4,7.1,12.4,11.4,20.9,10.8,9.3-.1,18.1-3.2,25.7-8.7v24.5h0ZM307.9,16.9h27v119.5h-27V16.9Zm-161,114.7c-8.9,4.5-18.7,6.9-28.6,6.7-28,0-48.9-19.2-48.9-45.4s22.8-45.6,50.1-45.6,17.9,2.1,25.9,6.1v25c-7.3-4.9-15.7-7.8-24.5-8.1-8.5-.4-16.4,4-20.6,11.2-4.2,7.3-4.2,16.3.1,23.4,4.4,7.1,12.4,11.4,20.9,10.8,9.3-.1,18.1-3.2,25.5-8.7v24.5h0Zm96-15.5c-3.7,0-5.3-2.8-5.3-6.9v-29.5c.8-9.1-2.9-18.1-9.8-24.1-8.5-6-18.8-8.9-29.1-8.3-10.6-.1-21,2.2-30.6,6.7v23.2c7.8-4.4,16.7-6.7,25.5-6.9,4.8-.4,9.5.9,13.5,3.7,2.2,2.5,3.6,5.8,3.3,9.3v3.4c-4.9-1.1-10.1-1.6-15.1-1.6-8.6-.5-17.1,1.7-24.5,6.1-7,4.8-11,12.7-10.7,21-.3,8.1,3.7,15.7,10.3,20.4,6,3.8,13.1,5.8,20.2,5.7,8.7.1,17.2-2.4,24.5-7.3h.3c5.2,4.6,11.9,7.1,18.9,6.7,4.5.1,8.9-.8,13-2.6v-20.1c-1.5.7-2.9,1.1-4.5,1.1Zm-32.4-1.1c-3.7,2.2-7.9,3.4-12.3,3.6-6.3,0-11.2-3-11.2-8.7s7-8.9,13.9-8.9,6.5.4,9.7,1.2v12.8Zm50.9-98.2h27v119.5h-27V16.9ZM16.9,108.9c0-9-2.5-12.6-11.8-12.6H0v-19.4h5.2c9.3,0,11.8-3.6,11.8-12.6V28.8c0-17.1,9.8-28.8,30.6-28.8s8.2.4,12.3,1.1v18.9c-2.2-.5-4.5-.8-6.7-.8-7.8,0-11.2,3.3-11.2,12.7v31.2c0,13.1-3,20.1-12.3,23.2v.4c9.3,3,12.3,10.1,12.3,23.2v31.2c0,9.4,3.4,12.7,11.2,12.7s4.5-.3,6.7-.8v18.9c-4.1.7-8.2,1.1-12.3,1.1-21,0-30.6-11.9-30.6-28.8v-35.2h0Z"/></svg>